# xmcd CD database file
#
# Track frame offsets:
#	150
#	26485
#	46900
#	67960
#	103692
#	125335
#	147817
#	160442
#	186950
#	216710
#	240160
#	266052
#	289990
#	303611
#
# Disc length: 4284 seconds
#
# Revision: 0
# Processed by: cddbd v1.5.2PL0 Copyright (c) Steve Scherf et al.
# Submitted via: CDex 1.70beta3
#
DISCID=d310ba0e
DTITLE=Roy Hargrove - Earfood
DYEAR=2008
DGENRE=Jazz
TTITLE0=I'm Not So Sure
TTITLE1=Brown
TTITLE2=Strasbourg - St. Denis
TTITLE3=Starmaker
TTITLE4=Joy Is Sorrow Unmasked
TTITLE5=The Stinger
TTITLE6=Rouge
TTITLE7=Mr. Clean
TTITLE8=Style
TTITLE9=Divine
TTITLE10=To Wisdom The Prize
TTITLE11=Speak Low
TTITLE12=Bring It On Home To Me
TTITLE13=Tshepiso
EXTD=YEAR: 2008
EXTT0=
EXTT1=
EXTT2=
EXTT3=
EXTT4=
EXTT5=
EXTT6=
EXTT7=
EXTT8=
EXTT9=
EXTT10=
EXTT11=
EXTT12=
EXTT13=
PLAYORDER=
